HIERARCHY
ROOT Hips
{
	OFFSET -0.001795 -0.223333 0.028219
	CHANNELS 6 Xposition Yposition Zposition Zrotation Yrotation Xrotation 
	JOINT LeftUpLeg
	{
		OFFSET 0.069520 -0.091406 -0.006815
		CHANNELS 3 Zrotation Yrotation Xrotation
		JOINT LeftLeg
		{
			OFFSET 0.034277 -0.375199 -0.004496
			CHANNELS 3 Zrotation Yrotation Xrotation
			JOINT LeftFoot
			{
				OFFSET -0.013596 -0.397961 -0.043693
				CHANNELS 3 Zrotation Yrotation Xrotation
				JOINT LeftToe
				{
					OFFSET 0.026358 -0.055791 0.119288
					CHANNELS 3 Zrotation Yrotation Xrotation
					End Site
					{
						OFFSET 0.000000 0.000000 0.000000
					}
				}
			}
		}
	}
	JOINT RightUpLeg
	{
		OFFSET -0.067670 -0.090522 -0.004320
		CHANNELS 3 Zrotation Yrotation Xrotation
		JOINT RightLeg
		{
			OFFSET -0.038290 -0.382569 -0.008850
			CHANNELS 3 Zrotation Yrotation Xrotation
			JOINT RightFoot
			{
				OFFSET 0.015774 -0.398415 -0.042312
				CHANNELS 3 Zrotation Yrotation Xrotation
				JOINT RightToe
				{
					OFFSET -0.025372 -0.048144 0.123348
					CHANNELS 3 Zrotation Yrotation Xrotation
					End Site
					{
						OFFSET 0.000000 0.000000 0.000000
					}
				}
			}
		}
	}
	JOINT Spine
	{
		OFFSET -0.002533 0.108963 -0.026696
		CHANNELS 3 Zrotation Yrotation Xrotation
		JOINT Spine1
		{
			OFFSET 0.005487 0.135180 0.001092
			CHANNELS 3 Zrotation Yrotation Xrotation
			JOINT Spine2
			{
				OFFSET 0.001457 0.052922 0.025425
				CHANNELS 3 Zrotation Yrotation Xrotation
				JOINT Neck
				{
					OFFSET -0.002778 0.213870 -0.042857
					CHANNELS 3 Zrotation Yrotation Xrotation
					JOINT Head
					{
						OFFSET 0.005152 0.064970 0.051349
						CHANNELS 3 Zrotation Yrotation Xrotation
						End Site
						{
							OFFSET 0.000000 0.000000 0.000000
						}
					}
				}
				JOINT LeftShoulder
				{
					OFFSET 0.078845 0.121749 -0.034090
					CHANNELS 3 Zrotation Yrotation Xrotation
					JOINT LeftArm
					{
						OFFSET 0.090977 0.030469 -0.008868
						CHANNELS 3 Zrotation Yrotation Xrotation
						JOINT LeftForeArm
						{
							OFFSET 0.259612 -0.012772 -0.027456
							CHANNELS 3 Zrotation Yrotation Xrotation
							JOINT LeftHand
							{
								OFFSET 0.249234 0.008986 -0.001171
								CHANNELS 3 Zrotation Yrotation Xrotation
								End Site
								{
									OFFSET 0.000000 0.000000 0.000000
								}
							}
						}
					}
				}
				JOINT RightShoulder
				{
					OFFSET -0.081759 0.118833 -0.038615
					CHANNELS 3 Zrotation Yrotation Xrotation
					JOINT RightArm
					{
						OFFSET -0.096012 0.032551 -0.009143
						CHANNELS 3 Zrotation Yrotation Xrotation
						JOINT RightForeArm
						{
							OFFSET -0.253742 -0.013329 -0.021401
							CHANNELS 3 Zrotation Yrotation Xrotation
							JOINT RightHand
							{
								OFFSET -0.255298 0.007772 -0.005559
								CHANNELS 3 Zrotation Yrotation Xrotation
								End Site
								{
									OFFSET 0.000000 0.000000 0.000000
								}
							}
						}
					}
				}
			}
		}
	}
}
MOTION
Frames: 13
Frame Time: 0.050000
-0.001643 0.950063 -0.037306 1.602397 -3.543502 5.020242 3.168100 -0.667716 -9.846251 -3.588948 0.428209 6.116929 2.968814 9.389014 13.799608 0.000000 0.000000 0.000000 -2.571041 0.753700 -8.293671 -4.806123 0.533572 0.701110 1.390330 -2.735052 11.744047 0.000000 0.000000 0.000000 8.121050 -0.589077 3.598729 3.759723 -1.841729 1.455784 -7.036431 4.365561 2.661515 17.502809 -11.338556 -8.802626 0.000000 0.000000 0.000000 1.665455 -20.808237 6.845714 -22.975028 -32.811415 2.532983 -28.548162 -77.871621 25.240241 0.000000 0.000000 0.000000 8.704766 8.377992 3.385196 53.103259 27.125764 7.397157 57.804973 71.271363 47.803180 0.000000 0.000000 0.000000 
-0.001190 0.950153 -0.037944 1.594109 -3.530031 5.234070 3.132378 -0.682604 -10.029691 -2.522700 0.238296 7.643221 0.984142 5.350859 10.296243 0.000000 0.000000 0.000000 -2.563812 0.784982 -8.661757 -4.860317 0.553214 0.868386 1.382154 -2.779506 11.817537 0.000000 0.000000 0.000000 8.172876 -0.602406 3.639079 3.809583 -1.868096 1.525810 -7.191737 4.369644 2.766482 17.191514 -11.232912 -8.438114 0.000000 0.000000 0.000000 1.434109 -20.178036 6.653124 -22.613628 -31.560848 2.265911 -44.947885 -79.398742 39.980171 0.000000 0.000000 0.000000 8.561580 8.011016 3.221751 53.151582 27.461030 7.572475 56.603947 71.573995 47.082888 0.000000 0.000000 0.000000 
-0.000682 0.950439 -0.038538 1.712237 -3.698928 5.578815 3.044146 -0.708694 -10.354098 -1.773886 0.091262 8.833367 -0.320416 2.312056 7.889707 0.000000 0.000000 0.000000 -2.666992 0.835472 -9.288887 -4.991001 0.591570 1.171995 1.447979 -2.714507 11.907003 0.000000 0.000000 0.000000 7.891444 -0.615784 3.822318 3.924835 -1.924842 1.627419 -7.436768 4.660586 2.642240 17.302573 -11.283266 -8.471945 0.000000 0.000000 0.000000 1.383325 -19.828374 6.531911 -21.842003 -30.420323 1.962042 -65.490677 -79.890589 58.648177 0.000000 0.000000 0.000000 8.705564 7.448418 3.013016 53.295377 27.597677 7.692920 55.243839 71.738696 46.215580 0.000000 0.000000 0.000000 
-0.000218 0.950682 -0.039136 1.863534 -3.929723 5.873443 2.933422 -0.722897 -10.459936 -1.056016 -0.050153 9.184372 -1.435005 -0.188745 6.708406 0.000000 0.000000 0.000000 -2.722084 0.879032 -9.809810 -5.271185 0.636842 1.357025 1.547905 -2.593351 11.993605 0.000000 0.000000 0.000000 7.854318 -0.632217 3.933335 3.858064 -1.885681 1.591001 -7.489457 4.476725 2.680546 16.967354 -11.139846 -8.168898 0.000000 0.000000 0.000000 1.454604 -19.587011 6.464085 -21.232153 -29.433107 1.722886 -76.597242 -79.959573 69.255587 0.000000 0.000000 0.000000 8.380358 7.524700 2.998618 53.569623 28.014346 7.953200 52.394492 71.834381 43.840903 0.000000 0.000000 0.000000 
0.000083 0.950978 -0.040014 1.933335 -4.172854 5.997845 2.882864 -0.715543 -10.295593 -0.451421 -0.158654 8.815766 -2.306387 -1.893212 6.588351 0.000000 0.000000 0.000000 -2.779095 0.909802 -10.184292 -5.356608 0.664757 1.583058 1.666107 -2.442187 12.086265 0.000000 0.000000 0.000000 7.611930 -0.631211 4.034198 4.073212 -2.011958 2.071244 -7.753077 4.543351 2.145193 17.075758 -11.330795 -7.697938 0.000000 0.000000 0.000000 2.050771 -19.646626 6.449873 -20.663254 -29.807758 1.700713 -72.739563 -80.665769 66.221297 0.000000 0.000000 0.000000 8.462521 7.783098 3.119353 53.671754 28.663685 8.344795 47.772550 71.859426 40.114819 0.000000 0.000000 0.000000 
0.000193 0.951073 -0.041316 1.978375 -4.327523 6.134692 3.008730 -0.696908 -10.136279 -0.304606 -0.164635 7.859364 -2.980024 -2.816878 7.400767 0.000000 0.000000 0.000000 -2.750243 0.950698 -10.643403 -5.517013 0.712934 1.923316 1.727274 -2.363162 12.121123 0.000000 0.000000 0.000000 7.505629 -0.664012 4.378162 4.191797 -2.083623 2.387928 -7.832769 4.512246 1.737749 17.055332 -11.485126 -7.080916 0.000000 0.000000 0.000000 2.342259 -20.400983 6.681345 -19.213801 -31.109622 1.632566 -45.447840 -81.738862 42.017999 0.000000 0.000000 0.000000 9.039920 8.555035 3.480580 53.610227 29.822057 8.918926 39.727365 70.793914 33.069994 0.000000 0.000000 0.000000 
0.000196 0.951112 -0.042877 1.948930 -4.222912 6.160586 3.084268 -0.681162 -9.934691 -0.092911 -0.181261 6.879123 -3.494397 -3.355150 8.304015 0.000000 0.000000 0.000000 -2.743267 0.966155 -10.836563 -5.457707 0.720501 2.074654 1.686686 -2.453906 12.186359 0.000000 0.000000 0.000000 7.518337 -0.680994 4.523106 4.549364 -2.273471 2.607516 -8.072009 4.213790 1.390281 17.066177 -11.631835 -6.577426 0.000000 0.000000 0.000000 3.234311 -21.424062 6.954439 -18.500953 -33.778129 1.815400 -10.187741 -78.086578 10.369410 0.000000 0.000000 0.000000 9.312374 9.623497 3.955633 54.040071 31.197260 9.727113 31.967038 69.340682 26.400573 0.000000 0.000000 0.000000 
0.000213 0.951177 -0.044140 1.777479 -4.415798 6.148382 3.382364 -0.644592 -9.686620 -0.299890 -0.132048 6.406729 -3.428373 -3.236175 8.344639 0.000000 0.000000 0.000000 -2.567649 0.987695 -10.974766 -5.434928 0.723447 2.149237 1.802636 -2.304579 12.285970 0.000000 0.000000 0.000000 7.640444 -0.712945 4.758075 4.648048 -2.336350 2.919472 -8.084969 4.253463 0.799073 17.292268 -12.100531 -5.553730 0.000000 0.000000 0.000000 3.510387 -22.908403 7.402112 -17.078817 -35.937890 1.764404 3.494335 -72.627601 -0.595223 0.000000 0.000000 0.000000 10.264440 10.461016 4.391833 54.147490 32.759474 10.569505 24.934815 66.805135 20.266091 0.000000 0.000000 0.000000 
0.000329 0.951155 -0.044830 1.690847 -4.360034 6.090783 3.524111 -0.630608 -9.604012 -0.378669 -0.116387 6.294468 -3.458290 -3.289187 8.334869 0.000000 0.000000 0.000000 -2.427404 1.000028 -11.049537 -5.516328 0.751727 2.344846 1.779111 -2.347535 12.298090 0.000000 0.000000 0.000000 7.877231 -0.745434 4.926632 4.808817 -2.443214 3.341192 -7.867253 3.920325 0.626705 16.989837 -12.071511 -4.902043 0.000000 0.000000 0.000000 3.945408 -23.983836 7.711135 -15.793088 -37.863582 1.657848 10.885197 -66.991412 -5.261868 0.000000 0.000000 0.000000 10.470573 11.629229 4.895761 54.343861 34.076270 11.294292 20.078017 64.561110 16.110180 0.000000 0.000000 0.000000 
0.000531 0.951292 -0.044987 1.614610 -4.438497 6.119851 3.597886 -0.613705 -9.394104 -0.393812 -0.103959 5.887649 -3.438926 -3.241641 8.382206 0.000000 0.000000 0.000000 -2.318095 1.014930 -11.150113 -5.587134 0.767689 2.429808 1.829361 -2.293998 12.366138 0.000000 0.000000 0.000000 8.157544 -0.769750 4.974858 4.924533 -2.518829 3.666415 -7.809376 3.792015 0.546672 17.061633 -12.376540 -4.128834 0.000000 0.000000 0.000000 4.382361 -24.822197 7.931971 -14.637734 -38.934358 1.460887 14.481713 -63.779805 -7.110032 0.000000 0.000000 0.000000 10.938121 12.392539 5.262914 54.226170 35.054558 11.747831 17.229599 62.969625 13.767214 0.000000 0.000000 0.000000 
0.000750 0.951347 -0.045022 1.556791 -4.436907 6.261757 3.617065 -0.610977 -9.340134 -0.337195 -0.105090 5.526574 -3.443562 -3.236543 8.416167 0.000000 0.000000 0.000000 -2.226281 1.029385 -11.255327 -5.670580 0.769421 2.341837 1.843629 -2.303167 12.450369 0.000000 0.000000 0.000000 8.467836 -0.789731 4.927895 4.974644 -2.558768 3.928318 -7.616527 3.667165 0.486144 17.026492 -12.537073 -3.537642 0.000000 0.000000 0.000000 4.583845 -24.822953 7.916908 -13.942092 -39.512715 1.330432 17.109217 -62.228978 -8.433676 0.000000 0.000000 0.000000 11.159814 12.888527 5.487916 53.932808 35.689185 11.980287 15.613461 61.632585 12.364046 0.000000 0.000000 0.000000 
0.000982 0.951491 -0.045190 1.595834 -4.327766 6.472061 3.538999 -0.628592 -9.514759 -0.278010 -0.111744 5.368125 -3.503381 -3.295155 8.509347 0.000000 0.000000 0.000000 -2.223823 1.058361 -11.583402 -5.783539 0.800966 2.528219 1.786967 -2.420690 12.511022 0.000000 0.000000 0.000000 8.653074 -0.816740 4.990183 5.040099 -2.608965 4.206875 -7.453587 3.617545 0.225541 16.849847 -12.724021 -2.492283 0.000000 0.000000 0.000000 4.903648 -25.055428 7.958361 -12.523309 -39.978668 0.987326 19.147883 -61.087835 -9.432078 0.000000 0.000000 0.000000 11.746378 13.148207 5.656318 53.186638 36.252667 12.049084 14.817785 60.576984 11.602514 0.000000 0.000000 0.000000 
0.001230 0.951392 -0.045581 1.622850 -4.195057 6.621068 3.563320 -0.639333 -9.693153 -0.369055 -0.096261 5.306005 -3.564806 -3.385215 8.530716 0.000000 0.000000 0.000000 -2.129081 1.091040 -11.901525 -6.034737 0.859127 2.802702 1.704392 -2.551990 12.494558 0.000000 0.000000 0.000000 8.767666 -0.850445 5.165917 5.150975 -2.661520 4.131037 -7.329178 3.507371 0.209417 16.626613 -12.764168 -1.820273 0.000000 0.000000 0.000000 5.622149 -24.845358 7.817111 -11.249239 -40.486771 0.659782 20.797279 -59.970531 -10.153407 0.000000 0.000000 0.000000 12.054954 13.437688 5.809627 52.720261 36.529407 12.036003 14.340991 59.955229 11.150996 0.000000 0.000000 0.000000 
